<svg width="164" height="98" viewBox="0 0 164 98" fill="none" xmlns="http://www.w3.org/2000/svg"><path d="M69.893 64.157c-4.778 6.224-12.296 10.246-20.732 10.246-13.493 0-24.623-10.284-25.974-23.419-.1-.895-.147-1.799-.147-2.71 0-.401.008-.795.024-1.189h-3.86a30.135 30.135 0 00.1 3.9c1.367 15.296 14.21 27.28 29.857 27.28 10.729 0 20.138-5.638 25.433-14.108h-4.7zm-20.732-45.88c-13.454 0-24.84 8.864-28.63 21.087h4.076c3.651-10.038 13.276-17.227 24.554-17.227 9.13 0 17.181 4.71 21.851 11.83h4.508c-5.071-9.351-14.974-15.69-26.36-15.69z" fill="#0D4376"/><path d="M81.487 64.157c-5.511 11.32-16.85 19.28-30.08 19.975-.625.031-1.25.047-1.876.047-.68 0-1.358-.016-2.03-.062C32.233 83.26 19.505 72.705 15.4 58.521h-4.006C15.607 74.867 30.065 87.105 47.5 87.985a37.997 37.997 0 003.906.008c15.445-.718 28.551-10.331 34.34-23.836h-4.26zM51.407 9.281a38.021 38.021 0 00-3.906.008c-20.292 1.027-36.54 17.435-37.32 37.796a33.92 33.92 0 00.039 3.9h3.859c-.054-.78-.077-1.56-.077-2.348 0-.517.007-1.035.038-1.552.78-18.207 15.322-32.908 33.461-33.928.672-.046 1.35-.061 2.03-.061.625 0 1.25.015 1.876.046 13.562.71 25.132 9.057 30.481 20.825h4.207C80.506 20.022 67.168 10.015 51.407 9.28z" fill="#0D4376"/><path d="M51.407 94.07c-.803.046-1.613.07-2.424.07-.494 0-.988-.008-1.482-.032C23.311 93.328 3.86 73.392 3.86 49c0-24.392 19.452-44.329 43.642-45.108.494-.024.988-.031 1.482-.031.81 0 1.621.023 2.424.07 18.563.98 34.186 13.241 40.13 30.035h4.083C89.514 14.995 72.155 1.066 51.407.062A47.428 47.428 0 0047.5.023C21.134.803 0 22.431 0 49c0 26.57 21.134 48.197 47.501 48.977a47.253 47.253 0 003.906-.039c20.701-1.004 38.03-14.871 44.174-33.78h-4.09c-5.984 16.73-21.576 28.93-40.085 29.912z" fill="#0D4376"/><path d="M23.187 50.984H10.22a33.923 33.923 0 01-.039-3.899h12.883c-.016.394-.024.788-.024 1.19 0 .91.047 1.814.147 2.71zM51.407.062v13.08a37.853 37.853 0 00-1.876-.046c-.68 0-1.358.015-2.03.061V.023a47.428 47.428 0 013.906.039zm0 84.07v13.806a47.56 47.56 0 01-3.906.039v-13.86c.672.046 1.35.062 2.03.062.625 0 1.25-.016 1.876-.047z" fill="#0D4376"/><path d="M37.914 54.915l.626-1.236c1.08 1.058 3.002 1.838 4.994 1.838 2.833 0 4.06-1.19 4.06-2.68 0-4.154-9.317-1.598-9.317-7.196 0-2.224 1.73-4.154 5.573-4.154 1.706 0 3.481.494 4.693 1.344l-.54 1.274c-1.297-.842-2.81-1.251-4.153-1.251-2.763 0-3.998 1.235-3.998 2.749 0 4.154 9.316 1.644 9.316 7.157 0 2.224-1.775 4.131-5.642 4.131-2.27 0-4.492-.803-5.62-1.969l.008-.007zm12.706-5.73c0-4.409 3.373-7.698 7.95-7.698s7.935 3.266 7.935 7.698-3.397 7.698-7.935 7.698c-4.539 0-7.95-3.289-7.95-7.698zm14.287 0c0-3.613-2.702-6.27-6.33-6.27-3.627 0-6.375 2.657-6.375 6.27 0 3.614 2.725 6.27 6.376 6.27 3.65 0 6.329-2.656 6.329-6.27zm4.493-7.567h1.597V55.37h8.475v1.382H69.4V41.618zm12.04 0h1.598v15.134H81.44V41.618zm5.836 0h6.16c4.839 0 8.104 3.112 8.104 7.567 0 4.456-3.265 7.567-8.105 7.567h-6.16V41.618zM93.35 55.37c4.022 0 6.615-2.548 6.615-6.185 0-3.636-2.593-6.184-6.615-6.184h-4.476v12.37h4.476zm16.75-6.185c0-4.432 3.373-7.698 7.935-7.698 2.208 0 4.191.734 5.534 2.208l-1.019 1.02c-1.235-1.251-2.747-1.792-4.476-1.792-3.651 0-6.399 2.68-6.399 6.27 0 3.59 2.748 6.27 6.399 6.27 1.729 0 3.241-.54 4.476-1.815l1.019 1.02c-1.343 1.467-3.326 2.223-5.557 2.223-4.539 0-7.912-3.266-7.912-7.698v-.008zm25.287 3.521h-8.429l-1.814 4.046h-1.667l6.916-15.134h1.574l6.916 15.134h-1.682l-1.814-4.046zm-.587-1.297l-3.628-8.13-3.628 8.13h7.264-.008zm4.454 3.506l.625-1.236c1.081 1.058 3.003 1.838 4.994 1.838 2.833 0 4.06-1.19 4.06-2.68 0-4.154-9.316-1.598-9.316-7.196 0-2.224 1.729-4.154 5.572-4.154 1.706 0 3.482.494 4.693 1.344l-.54 1.274c-1.297-.842-2.809-1.251-4.153-1.251-2.763 0-3.998 1.235-3.998 2.749 0 4.154 9.317 1.644 9.317 7.157 0 2.224-1.776 4.131-5.643 4.131-2.269 0-4.492-.803-5.619-1.969l.008-.007zM164 55.37v1.382h-10.698V41.618h10.374v1.383H154.9v5.381h7.826v1.36H154.9v5.62h9.1v.008zm-57.165 8.787h.803v6.88h4.237v.695h-5.04v-7.575zm11.347 5.552h-4.215l-.911 2.023h-.833l3.458-7.575h.787l3.458 7.575h-.841l-.911-2.023h.008zm-.294-.649l-1.814-4.069-1.814 4.07h3.636-.008zm13.508-4.903l-2.555 7.575H128l-2.215-6.455-2.231 6.455h-.834l-2.555-7.575h.818l2.185 6.51 2.261-6.51h.749l2.231 6.54 2.215-6.54h.772zm5.681.695v2.973h3.913v.695h-3.913v3.212h-.803v-7.575h5.187v.695h-4.392.008zm6.26-.695h.803v7.575h-.803v-7.575zm8.645 7.575l-1.729-2.432c-.193.023-.386.03-.602.03h-2.03v2.402h-.803v-7.575h2.833c1.922 0 3.095.973 3.095 2.595 0 1.189-.625 2.023-1.729 2.378l1.853 2.594h-.873l-.015.008zm-.046-4.973c0-1.212-.803-1.907-2.316-1.907h-2.015v3.8h2.015c1.513 0 2.316-.704 2.316-1.893zm10.767-2.602v7.575h-.764v-6.054l-2.972 5.097h-.378l-2.972-5.058v6.023h-.764v-7.575h.656l3.289 5.613 3.257-5.613h.656l-.008-.008z" fill="#4C565D"/></svg> 55.3702 99.9654 52.8222 99.9654 49.1854C99.9654 45.5486 97.3719 43.0005 93.3504 43.0005H88.8736V55.3702H93.3504Z" fill="#4C565D" />
  <path d="M110.1 49.1853C110.1 44.7532 113.473 41.4871 118.035 41.4871C120.243 41.4871 122.226 42.2206 123.569 43.6954L122.55 44.7146C121.315 43.4637 119.803 42.9232 118.074 42.9232C114.423 42.9232 111.675 45.6026 111.675 49.193C111.675 52.7835 114.423 55.4628 118.074 55.4628C119.803 55.4628 121.315 54.9223 122.55 53.6483L123.569 54.6675C122.226 56.1346 120.243 56.8913 118.012 56.8913C113.473 56.8913 110.1 53.6251 110.1 49.193V49.1853Z" fill="#4C565D" />
  <path d="M135.387 52.7063H126.958L125.144 56.7524H123.477L130.393 41.6184H131.967L138.883 56.7524H137.201L135.387 52.7063ZM134.8 51.4091L131.172 43.2785L127.544 51.4091H134.808H134.8Z" fill="#4C565D" />
  <path d="M139.254 54.9146L139.879 53.6791C140.96 54.737 142.882 55.5168 144.873 55.5168C147.706 55.5168 148.933 54.3277 148.933 52.8375C148.933 48.6834 139.617 51.2392 139.617 45.6412C139.617 43.4174 141.346 41.4871 145.189 41.4871C146.895 41.4871 148.671 41.9812 149.882 42.8306L149.342 44.1046C148.045 43.263 146.533 42.8537 145.189 42.8537C142.426 42.8537 141.191 44.0892 141.191 45.6026C141.191 49.7567 150.508 47.2472 150.508 52.7603C150.508 54.9841 148.732 56.8913 144.865 56.8913C142.596 56.8913 140.373 56.0882 139.246 54.9223L139.254 54.9146Z" fill="#4C565D" />
  <path d="M164 55.3702V56.7524H153.302V41.6184H163.676V43.0005H154.9V48.3824H162.726V49.7413H154.9V55.3625H164V55.3702Z" fill="#4C565D" />
  <path d="M106.835 64.1572H107.638V71.037H111.875V71.7319H106.835V64.1572Z" fill="#4C565D" />
  <path d="M118.182 69.7089H113.967L113.056 71.7319H112.223L115.681 64.1572H116.468L119.926 71.7319H119.085L118.174 69.7089H118.182ZM117.888 69.0603L116.074 64.9911L114.26 69.0603H117.896H117.888Z" fill="#4C565D" />
  <path d="M131.396 64.1572L128.841 71.7319H128L125.785 65.2768L123.554 71.7319H122.72L120.165 64.1572H120.983L123.168 70.6664L125.429 64.1572H126.178L128.409 70.6973L130.624 64.1572H131.388H131.396Z" fill="#4C565D" />
  <path d="M137.077 64.8522V67.8249H140.99V68.5198H137.077V71.7319H136.274V64.1572H141.461V64.8522H137.069H137.077Z" fill="#4C565D" />
  <path d="M143.337 64.1572H144.14V71.7319H143.337V64.1572Z" fill="#4C565D" />
  <path d="M151.982 71.7319L150.253 69.2997C150.06 69.3228 149.867 69.3306 149.651 69.3306H147.621V71.7319H146.818V64.1572H149.651C151.573 64.1572 152.746 65.1301 152.746 66.7516C152.746 67.9407 152.121 68.7746 151.017 69.1298L152.87 71.7242H151.997L151.982 71.7319ZM151.936 66.7593C151.936 65.5471 151.133 64.8522 149.62 64.8522H147.605V68.6511H149.62C151.133 68.6511 151.936 67.9484 151.936 66.7593Z" fill="#4C565D" />
  <path d="M162.703 64.1572V71.7319H161.939V65.6783L158.967 70.7745H158.589L155.617 65.717V71.7396H154.853V64.1649H155.509L158.798 69.7784L162.055 64.1649H162.711L162.703 64.1572Z" fill="#4C565D" />
</svg>
