<?xml version="1.0" encoding="utf-8"?><svg width="164" height="98" fill="none" xmlns="http://www.w3.org/2000/svg" viewBox="0 0 164 98"><path d="M69.893 64.157c-4.778 6.224-12.296 10.246-20.732 10.246-13.493 0-24.623-10.284-25.974-23.419-.1-.895-.147-1.799-.147-2.71 0-.401.008-.795.024-1.189h-3.86a30.135 30.135 0 00.1 3.9c1.367 15.296 14.21 27.28 29.857 27.28 10.729 0 20.138-5.638 25.433-14.108h-4.7zm-20.732-45.88c-13.454 0-24.84 8.864-28.63 21.087h4.076c3.651-10.038 13.276-17.227 24.554-17.227 9.13 0 17.181 4.71 21.851 11.83h4.508c-5.071-9.351-14.974-15.69-26.36-15.69z" fill="#0D4376"/><path d="M81.487 64.157c-5.511 11.32-16.85 19.28-30.08 19.975-.625.031-1.25.047-1.876.047-.68 0-1.358-.016-2.03-.062C32.233 83.26 19.505 72.705 15.4 58.521h-4.006C15.607 74.867 30.065 87.105 47.5 87.985a37.997 37.997 0 003.906.008c15.445-.718 28.551-10.331 34.34-23.836h-4.26zM51.407 9.281a38.021 38.021 0 00-3.906.008c-20.292 1.027-36.54 17.435-37.32 37.796a33.92 33.92 0 00.039 3.9h3.859c-.054-.78-.077-1.56-.077-2.348 0-.517.007-1.035.038-1.552.78-18.207 15.322-32.908 33.461-33.928.672-.046 1.35-.061 2.03-.061.625 0 1.25.015 1.876.046 13.562.71 25.132 9.057 30.481 20.825h4.207C80.506 20.022 67.168 10.015 51.407 9.28z" fill="#0D4376"/><path d="M51.407 94.07c-.803.046-1.613.07-2.424.07-.494 0-.988-.008-1.482-.032C23.311 93.328 3.86 73.392 3.86 49c0-24.392 19.452-44.329 43.642-45.108.494-.024.988-.031 1.482-.031.81 0 1.621.023 2.424.07 18.563.98 34.186 13.241 40.13 30.035h4.083C89.514 14.995 72.155 1.066 51.407.062A47.428 47.428 0 0047.5.023C21.134.803 0 22.431 0 49c0 26.57 21.134 48.197 47.501 48.977a47.253 47.253 0 003.906-.039c20.701-1.004 38.03-14.871 44.174-33.78h-4.09C85.507 80.888 69.915 93.088 51.406 94.07z" fill="#0D4376"/><path d="M23.187 50.984H10.22c-.054-.78-.078-1.56-.078-2.347 0-.517.008-1.035.039-1.552h12.883c-.016.394-.024.788-.024 1.19 0 .91.047 1.814.147 2.71zM51.407.062v13.08c-.625-.031-1.25-.046-1.876-.046-.68 0-1.358.015-2.03.061V.023a47.428 47.428 0 013.906.039zM51.407 84.132v13.806a47.56 47.56 0 01-3.906.039v-13.86c.672.046 1.35.062 2.03.062.625 0 1.25-.016 1.876-.047z" fill="#0D4376"/><path d="M37.914 54.915l.626-1.236c1.08 1.058 3.002 1.838 4.994 1.838 2.833 0 4.06-1.19 4.06-2.68 0-4.154-9.317-1.598-9.317-7.196 0-2.224 1.73-4.154 5.573-4.154 1.706 0 3.481.494 4.693 1.344l-.54 1.274c-1.297-.842-2.81-1.251-4.153-1.251-2.763 0-3.998 1.235-3.998 2.749 0 4.154 9.316 1.644 9.316 7.157 0 2.224-1.775 4.131-5.642 4.131-2.27 0-4.492-.803-5.62-1.969l.008-.007zM50.62 49.185c0-4.409 3.373-7.698 7.95-7.698s7.935 3.266 7.935 7.698-3.397 7.698-7.935 7.698c-4.539 0-7.95-3.289-7.95-7.698zm14.287 0c0-3.613-2.702-6.27-6.33-6.27-3.627 0-6.375 2.657-6.375 6.27 0 3.614 2.725 6.27 6.376 6.27 3.65 0 6.329-2.656 6.329-6.27zM69.4 41.618h1.597V55.37h8.475v1.382H69.4V41.618zM81.44 41.618h1.598v15.134H81.44V41.618zM87.276 41.618h6.16c4.839 0 8.104 3.112 8.104 7.567 0 4.456-3.265 7.567-8.105 7.567h-6.16V41.618zM93.35 55.37c4.022 0 6.615-2.548 6.615-6.185 0-3.636-2.593-6.184-6.615-6.184h-4.476v12.37h4.476zM110.1 49.185c0-4.432 3.373-7.698 7.935-7.698 2.208 0 4.191.734 5.534 2.208l-1.019 1.02c-1.235-1.251-2.747-1.792-4.476-1.792-3.651 0-6.399 2.68-6.399 6.27 0 3.59 2.748 6.27 6.399 6.27 1.729 0 3.241-.54 4.476-1.815l1.019 1.02c-1.343 1.467-3.326 2.223-5.557 2.223-4.539 0-7.912-3.266-7.912-7.698v-.008zM135.387 52.706h-8.429l-1.814 4.046h-1.667l6.916-15.134h1.574l6.916 15.134h-1.682l-1.814-4.046zm-.587-1.297l-3.628-8.13-3.628 8.13h7.264-.008zM139.254 54.915l.625-1.236c1.081 1.058 3.003 1.838 4.994 1.838 2.833 0 4.06-1.19 4.06-2.68 0-4.154-9.316-1.598-9.316-7.196 0-2.224 1.729-4.154 5.572-4.154 1.706 0 3.482.494 4.693 1.344l-.54 1.274c-1.297-.842-2.809-1.251-4.153-1.251-2.763 0-3.998 1.235-3.998 2.749 0 4.154 9.317 1.644 9.317 7.157 0 2.224-1.776 4.131-5.643 4.131-2.269 0-4.492-.803-5.619-1.969l.008-.007zM164 55.37v1.382h-10.698V41.618h10.374v1.383H154.9v5.381h7.826v1.36H154.9v5.62h9.1v.008zM106.835 64.157h.803v6.88h4.237v.695h-5.04v-7.575zM118.182 69.709h-4.215l-.911 2.023h-.833l3.458-7.575h.787l3.458 7.575h-.841l-.911-2.023h.008zm-.294-.649l-1.814-4.069-1.814 4.07h3.636-.008zM131.396 64.157l-2.555 7.575H128l-2.215-6.455-2.231 6.455h-.834l-2.555-7.575h.818l2.185 6.51 2.261-6.51h.749l2.231 6.54 2.215-6.54h.772zM137.077 64.852v2.973h3.913v.695h-3.913v3.212h-.803v-7.575h5.187v.695h-4.392.008zM143.337 64.157h.803v7.575h-.803v-7.575zM151.982 71.732l-1.729-2.432c-.193.023-.386.03-.602.03h-2.03v2.402h-.803v-7.575h2.833c1.922 0 3.095.973 3.095 2.595 0 1.189-.625 2.023-1.729 2.378l1.853 2.594h-.873l-.015.008zm-.046-4.973c0-1.212-.803-1.907-2.316-1.907h-2.015v3.8h2.015c1.513 0 2.316-.704 2.316-1.893zM162.703 64.157v7.575h-.764v-6.054l-2.972 5.097h-.378l-2.972-5.058v6.023h-.764v-7.575h.656l3.289 5.613 3.257-5.613h.656l-.008-.008z" fill="#4C565D"/></svg>